Coordinates
version=1
nRows=12
nColumns=24
inDegrees=yes

Units are S.I. units (second, meters, Newtons, ...)
Angles are in degrees.

endheader
time	pelvis_tilt	pelvis_list	pelvis_rotation	pelvis_tx	pelvis_ty	pelvis_tz	hip_flexion_r	hip_adduction_r	hip_rotation_r	knee_angle_r	ankle_angle_r	subtalar_angle_r	mtp_angle_r	hip_flexion_l	hip_adduction_l	hip_rotation_l	knee_angle_l	ankle_angle_l	subtalar_angle_l	mtp_angle_l	lumbar_extension	lumbar_bending	lumbar_rotation
      2.85500000	     -4.94438105	      3.42151349	    361.31352181	     -0.30827167	      1.39038043	     -1.03274054	     27.56264696	     -2.99938054	      1.52653001	    -22.74965124	     -2.56427410	     -7.80963435	     10.00488429	      0.70809942	      7.20959542	      7.18240537	     -6.09818279	      3.71334009	     -2.76504717	     15.82416630	     -8.16123984	     -0.37745931	      8.16738474
      2.86000000	     -5.05016440	      3.50372829	    361.46256196	     -0.30345095	      1.38957114	     -1.03280859	     27.44407502	     -3.16634041	      1.67468008	    -20.80710251	     -3.23291223	     -8.05490425	      9.79362621	      0.51442759	      7.30929059	      7.44523954	     -6.11454511	      3.95356196	     -2.86282869	     15.70207861	     -8.07568970	     -0.48140819	      8.03181681
      2.86500000	     -5.15249638	      3.58440432	    361.60538267	     -0.29858692	      1.38874013	     -1.03289838	     27.29663324	     -3.33847142	      1.82629772	    -18.84230692	     -3.85939576	     -8.28177240	      9.64754780	      0.31340050	      7.40871957	      7.71140889	     -6.13431151	      4.22501983	     -2.94993641	     15.56119963	     -7.97476700	     -0.57436148	      7.93262087
      2.87000000	     -5.22505709	      3.67840957	    361.73011860	     -0.29377122	      1.38790613	     -1.03292757	     27.10761688	     -3.51781137	      2.02453482	    -16.87430749	     -4.52013996	     -8.54742783	      9.62595904	      0.08377442	      7.51800900	      7.91782982	     -6.15507360	      4.48475005	     -3.02436163	     15.32229738	     -7.94375091	     -0.68141845	      7.78642677
      2.87500000	     -5.33895716	      3.77338923	    361.89437738	     -0.28894301	      1.38699387	     -1.03302901	     26.94386194	     -3.72695902	      2.19873834	    -14.91517632	     -5.06050213	     -8.75063116	      9.59404778	     -0.08167472	      7.63473313	      8.20364725	     -6.22003565	      4.75490423	     -3.10675737	     15.15329700	     -7.85517069	     -0.79256822	      7.67734731
      2.88000000	     -5.43451691	      3.88214656	    362.04399075	     -0.28407545	      1.38606285	     -1.03310740	     26.74746561	     -3.94973201	      2.37088722	    -12.96478043	     -5.60308593	     -8.96298360	      9.63451519	     -0.28307667	      7.76371594	      8.46150459	     -6.25988742	      5.02420153	     -3.21234597	     14.93061719	     -7.78683185	     -0.91131044	      7.54690130
      2.88500000	     -5.60601054	      3.99611146	    362.22171661	     -0.27917708	      1.38501902	     -1.03324766	     26.63074723	     -4.20456270	      2.47026391	    -11.06748403	     -5.97931598	     -8.93771084	      9.56564965	     -0.37611655	      7.90600904	      8.73271846	     -6.35388862	      5.28461540	     -3.28390999	     14.88097968	     -7.61619507	     -1.05873680	      7.51722527
      2.89000000	     -5.68722747	      4.13861035	    362.39198640	     -0.27427280	      1.38402190	     -1.03333187	     26.39669957	     -4.47763358	      2.65656756	     -9.16950846	     -6.47935555	     -9.24591716	      9.85655017	     -0.59416062	      8.07292014	      9.05609279	     -6.41204055	      5.56899752	     -3.41032979	     14.45033511	     -7.57030510	     -1.19828557	      7.32727203
      2.89500000	     -5.84521671	      4.27855009	    362.58577561	     -0.26931279	      1.38289396	     -1.03346143	     26.26367207	     -4.76841233	      2.72133493	     -7.38746388	     -6.74733808	     -9.22190660	      9.77306590	     -0.71452034	      8.24119624	      9.37092860	     -6.49735210	      5.85040114	     -3.53175296	     14.40022699	     -7.42078412	     -1.35322576	      7.20407673
      2.90000000	     -5.97966173	      4.42878734	    362.78335385	     -0.26435462	      1.38176598	     -1.03357597	     26.11279206	     -5.06900706	      2.76892173	     -5.68470974	     -6.98307772	     -9.20185659	      9.72654457	     -0.85981696	      8.41940904	      9.70638299	     -6.59024603	      6.09943272	     -3.68739885	     14.27528667	     -7.30679850	     -1.51108432	      7.05103319
      2.90500000	     -6.10315294	      4.58172501	    362.98184258	     -0.25938232	      1.38062486	     -1.03368695	     25.96703489	     -5.37036484	      2.78120050	     -4.08745477	     -7.15476587	     -9.12824931	      9.72111174	     -1.01685224	      8.60005541	     10.05883956	     -6.69230489	      6.34465563	     -3.86265658	     14.08899731	     -7.20707146	     -1.65877291	      6.87682113
      2.91000000	     -6.24969667	      4.73659151	    363.18099907	     -0.25437216	      1.37944913	     -1.03376530	     25.87705391	     -5.66640664	      2.73195840	     -2.63568275	     -7.25772661	     -8.98726836	      9.70245116	     -1.15037259	      8.77965935	     10.38355474	     -6.79535822	      6.60442895	     -3.98565788	     13.95785020	     -7.07975158	     -1.83148575	      6.75566251
